<svg width="22" height="22" viewBox="0 0 22 22" fill="none" xmlns="http://www.w3.org/2000/svg">
<path d="M11.2389 4.35194C11.175 4.29075 11.0898 4.25659 11.0013 4.25659C10.9128 4.25659 10.8277 4.29075 10.7637 4.35194L2.85315 11.9089C2.81955 11.941 2.79283 11.9796 2.77458 12.0224C2.75634 12.0651 2.74696 12.1112 2.74702 12.1576L2.74573 19.2501C2.74573 19.6147 2.89059 19.9645 3.14846 20.2223C3.40632 20.4802 3.75605 20.6251 4.12073 20.6251H8.25002C8.43236 20.6251 8.60723 20.5526 8.73616 20.4237C8.86509 20.2948 8.93752 20.1199 8.93752 19.9376V14.0938C8.93752 14.0026 8.97374 13.9152 9.03821 13.8507C9.10267 13.7863 9.19011 13.7501 9.28127 13.7501H12.7188C12.8099 13.7501 12.8974 13.7863 12.9618 13.8507C13.0263 13.9152 13.0625 14.0026 13.0625 14.0938V19.9376C13.0625 20.1199 13.135 20.2948 13.2639 20.4237C13.3928 20.5526 13.5677 20.6251 13.75 20.6251H17.8776C18.2423 20.6251 18.592 20.4802 18.8499 20.2223C19.1077 19.9645 19.2526 19.6147 19.2526 19.2501V12.1576C19.2527 12.1112 19.2433 12.0651 19.225 12.0224C19.2068 11.9796 19.1801 11.941 19.1465 11.9089L11.2389 4.35194Z" fill="black"/>
<path d="M21.0938 10.4908L17.8797 7.41598V2.75C17.8797 2.56766 17.8073 2.3928 17.6784 2.26386C17.5494 2.13493 17.3746 2.0625 17.1922 2.0625H15.1297C14.9474 2.0625 14.7725 2.13493 14.6436 2.26386C14.5147 2.3928 14.4422 2.56766 14.4422 2.75V4.125L11.9535 1.74539C11.7206 1.50992 11.3743 1.375 11 1.375C10.627 1.375 10.2816 1.50992 10.0487 1.74582L0.909235 10.49C0.641969 10.7478 0.608454 11.1719 0.851657 11.4512C0.912729 11.5217 0.987507 11.579 1.07144 11.6197C1.15538 11.6604 1.24671 11.6835 1.33989 11.6878C1.43306 11.6921 1.52613 11.6773 1.61343 11.6445C1.70072 11.6116 1.78042 11.5613 1.84767 11.4967L10.7637 2.97687C10.8277 2.91568 10.9128 2.88152 11.0013 2.88152C11.0898 2.88152 11.175 2.91568 11.2389 2.97687L20.1558 11.4967C20.2871 11.6227 20.4631 11.6914 20.645 11.6879C20.827 11.6843 21.0001 11.6088 21.1265 11.4778C21.3903 11.2045 21.3684 10.7534 21.0938 10.4908Z" fill="black"/>
</svg>
