<svg width="22" height="22" viewBox="0 0 22 22" fill="none" xmlns="http://www.w3.org/2000/svg">
<path d="M9.49996 2.75C8.16495 2.75 6.85991 3.14588 5.74989 3.88757C4.63986 4.62927 3.7747 5.68347 3.26381 6.91686C2.75292 8.15026 2.61925 9.50745 2.8797 10.8168C3.14015 12.1262 3.78302 13.3289 4.72702 14.2729C5.67102 15.2169 6.87375 15.8598 8.18311 16.1202C9.49248 16.3807 10.8497 16.247 12.0831 15.7361C13.3165 15.2252 14.3707 14.3601 15.1124 13.25C15.854 12.14 16.2499 10.835 16.2499 9.49996C16.2498 7.70979 15.5386 5.99298 14.2728 4.72714C13.0069 3.46131 11.2901 2.75011 9.49996 2.75V2.75Z" stroke="black" stroke-width="1.38" stroke-miterlimit="10"/>
<path d="M14.5359 14.5359L19.25 19.25" stroke="black" stroke-width="1.38" stroke-miterlimit="10" stroke-linecap="round"/>
</svg>
